<svg width="40" height="40" viewBox="0 0 40 40" fill="none" xmlns="http://www.w3.org/2000/svg">
<path d="M13.5625 2.50781C9.75 3 6.76562 5.82031 6.00781 9.64844C5.91406 10.1016 5.89844 12.2812 5.89844 22.3828V34.5703L6.07812 35.0156C6.50781 36.0781 7.29688 36.8906 8.26562 37.2812C8.64844 37.4297 8.85156 37.4609 9.6875 37.4609C10.6094 37.4609 10.6953 37.4453 11.1641 37.2266C11.4844 37.0859 13.0703 35.9531 15.3828 34.2344C17.4219 32.7109 19.1797 31.4375 19.2812 31.3984C19.5781 31.2812 20.0234 31.3203 20.2734 31.4766C20.4062 31.5547 22.1094 32.8203 24.0625 34.2891C26.0156 35.75 27.7969 37.0391 28.0156 37.1484C28.5547 37.4062 28.9844 37.4922 29.6953 37.5C31.2266 37.5 32.6328 36.5469 33.2188 35.1016L33.3984 34.6484V22.2266V9.80469L33.1875 9.03906C32.7656 7.51562 31.9531 6.09375 30.8984 5.03906C29.4609 3.60938 27.6484 2.72656 25.6797 2.50781C24.7734 2.40625 14.3594 2.40625 13.5625 2.50781ZM25.6562 5.11719C27.7969 5.49219 29.5078 6.84375 30.3594 8.82812C30.8828 10.0391 30.8594 9.39062 30.8594 22.3203V34.0234L30.6797 34.3281C30.3672 34.8828 29.6172 35.0938 29.0859 34.7656C28.9453 34.6875 27.2812 33.4453 25.375 32.0156C23.4688 30.5859 21.7266 29.3203 21.5 29.1953C20.3516 28.5703 18.7969 28.6016 17.7266 29.2891C17.5234 29.4141 15.7812 30.6953 13.8438 32.1328C11.9141 33.5703 10.2578 34.7891 10.1719 34.8359C9.97656 34.9375 9.64062 34.9609 9.32031 34.8906C9.00781 34.8203 8.53906 34.3125 8.47656 33.9688C8.45312 33.8281 8.4375 28.4375 8.45312 21.9922L8.47656 10.2734L8.64844 9.67969C9.07812 8.17969 10.0625 6.82812 11.3125 6.03125C12.1484 5.49219 12.9141 5.22656 14.0625 5.04688C14.1719 5.03125 16.6719 5.01562 19.6172 5.00781C24.0703 5 25.0938 5.02344 25.6562 5.11719Z" fill="white"/>
</svg>
