<svg width="40" height="40" viewBox="0 0 40 40" fill="none" xmlns="http://www.w3.org/2000/svg">
<g clip-path="url(#clip0_125_659)">
<mask id="mask0_125_659" style="mask-type:luminance" maskUnits="userSpaceOnUse" x="0" y="0" width="40" height="40">
<path d="M40 0H0V40H40V0Z" fill="white"/>
</mask>
<g mask="url(#mask0_125_659)">
<path d="M9.29701 2.30469C7.72669 2.57813 5.82826 3.39844 4.60169 4.32813C2.52357 5.89844 0.976694 8.33594 0.336069 11.0156C-0.00768155 12.4844 -0.109244 14.7109 0.109506 16.1328C0.679819 19.8516 2.89857 23.3828 7.21888 27.4453C8.82045 28.9531 9.93763 29.9375 14.4845 33.8516C17.2814 36.2656 18.6876 37.4219 18.9845 37.5625C19.5939 37.8594 20.4064 37.8594 21.0158 37.5703C21.6017 37.2812 29.9298 30.125 32.7501 27.4766C37.0704 23.4219 39.3204 19.8516 39.8908 16.1328C40.1095 14.7109 40.0079 12.4844 39.6642 11.0156C39.0236 8.33594 37.4767 5.89844 35.3986 4.32813C34.1408 3.375 32.2579 2.57031 30.6251 2.30469C29.7423 2.15625 27.9376 2.15625 27.0626 2.30469C24.6408 2.72656 22.3673 4.07032 20.6564 6.10938C20.3204 6.50782 20.0314 6.83594 20.0001 6.83594C19.9689 6.83594 19.6798 6.50782 19.3439 6.10938C17.6329 4.07032 15.3595 2.72656 12.9376 2.30469C12.0939 2.16406 10.1408 2.16406 9.29701 2.30469ZM13.2033 4.83594C13.9611 5.05469 15.2267 5.67969 15.8204 6.125C16.5548 6.67969 17.5392 7.70313 18.0704 8.46094C18.3361 8.84375 18.6486 9.29688 18.7658 9.46094C19.3517 10.2891 20.6486 10.2891 21.2345 9.46094C21.3517 9.29688 21.6642 8.84375 21.9298 8.46094C22.4611 7.70313 23.4454 6.67969 24.1798 6.125C24.7892 5.67188 26.047 5.05469 26.8361 4.82813C27.3829 4.67188 27.6329 4.64844 28.8673 4.64844C30.4064 4.65625 30.922 4.75 32.1095 5.22656C34.7423 6.29688 36.7111 8.80469 37.3908 11.9531C37.5939 12.8984 37.6017 15.3828 37.3986 16.3281C36.6564 19.7812 34.3204 22.8828 28.7736 27.7969C25.8908 30.3516 20.0392 35.3125 19.9533 35.2812C19.8361 35.2344 13.0626 29.4297 11.2111 27.7812C5.64857 22.8437 3.35169 19.7812 2.60169 16.3281C2.39857 15.3828 2.40638 12.8984 2.60951 11.9531C3.39857 8.32032 5.80482 5.66406 9.05482 4.85156C9.92201 4.625 10.0001 4.625 11.3673 4.64844C12.3673 4.66406 12.7345 4.70313 13.2033 4.83594Z" fill="white"/>
</g>
</g>
<defs>
<clipPath id="clip0_125_659">
<rect width="40" height="40" fill="white"/>
</clipPath>
</defs>
</svg>
