<svg width="40" height="36" viewBox="0 0 40 36" fill="none" xmlns="http://www.w3.org/2000/svg">
<g clip-path="url(#clip0_159_220)">
<path d="M9.29701 0.304689C7.72669 0.578129 5.82826 1.39844 4.60169 2.32813C2.52357 3.89844 0.976694 6.33594 0.336069 9.01561C-0.00768158 10.4844 -0.109244 12.7109 0.109506 14.1328C0.679819 17.8516 2.89857 21.3828 7.21888 25.4453C8.82045 26.9531 9.93763 27.9375 14.4845 31.8516C17.2814 34.2656 18.6876 35.4219 18.9845 35.5625C19.5939 35.8594 20.4064 35.8594 21.0158 35.5703C21.6017 35.2812 29.9298 28.125 32.7501 25.4766C37.0704 21.4219 39.3204 17.8516 39.8908 14.1328C40.1095 12.7109 40.0079 10.4844 39.6642 9.01561C39.0236 6.33594 37.4767 3.89844 35.3986 2.32813C34.1408 1.375 32.2579 0.570309 30.6251 0.304689C29.7423 0.156249 27.9376 0.156249 27.0626 0.304689C24.6408 0.726559 22.3673 2.07032 20.6564 4.10938C20.3204 4.50782 20.0314 4.83594 20.0001 4.83594C19.9689 4.83594 19.6798 4.50782 19.3439 4.10938C17.6329 2.07032 15.3595 0.726559 12.9376 0.304689C12.0939 0.164059 10.1408 0.164059 9.29701 0.304689ZM13.2033 2.83594C13.9611 3.05469 15.2267 3.67969 15.8204 4.125C16.5548 4.67969 17.5392 5.70313 18.0704 6.46094C18.3361 6.84375 18.6486 7.29688 18.7658 7.46094C19.3517 8.28911 20.6486 8.28911 21.2345 7.46094C21.3517 7.29688 21.6642 6.84375 21.9298 6.46094C22.4611 5.70313 23.4454 4.67969 24.1798 4.125C24.7892 3.67188 26.047 3.05469 26.8361 2.82813C27.3829 2.67188 27.6329 2.64844 28.8673 2.64844C30.4064 2.65625 30.922 2.75 32.1095 3.22656C34.7423 4.29688 36.7111 6.80469 37.3908 9.95311C37.5939 10.8984 37.6017 13.3828 37.3986 14.3281C36.6564 17.7812 34.3204 20.8828 28.7736 25.7969C25.8908 28.3516 20.0392 33.3125 19.9533 33.2812C19.8361 33.2344 13.0626 27.4297 11.2111 25.7812C5.64857 20.8437 3.35169 17.7812 2.60169 14.3281C2.39857 13.3828 2.40638 10.8984 2.60951 9.95311C3.39857 6.32032 5.80482 3.66406 9.05482 2.85156C9.92201 2.625 10.0001 2.625 11.3673 2.64844C12.3673 2.66406 12.7345 2.70313 13.2033 2.83594Z" fill="#ED1C24"/>
</g>
<defs>
<clipPath id="clip0_159_220">
<rect width="40" height="36" fill="white"/>
</clipPath>
</defs>
</svg>
