<svg width="40" height="40" viewBox="0 0 40 40" fill="none" xmlns="http://www.w3.org/2000/svg">
<path d="M12.8125 3.89844C12.1875 4.0625 11.5313 4.35938 11.0547 4.6875C10.3047 5.20313 9.38282 6.60156 9.14063 7.58594C9.09375 7.78125 8.97657 8.48438 8.875 9.14844L8.71094 10.3516L7.42188 10.3984C6.32032 10.4375 6.04688 10.4766 5.5625 10.6484C4.3125 11.0859 3.25 11.9766 2.67969 13.0859C2.0625 14.2734 2.10157 13.6641 2.10157 23.3125C2.10157 29.1563 2.125 32.0391 2.1875 32.2891C2.50782 33.7422 3.54688 35.0547 4.88282 35.7109C6.07032 36.2891 5.30469 36.2578 16.6484 36.2344L26.8359 36.2109L27.4609 36.0313C29.3516 35.5078 30.5781 34.2969 31 32.5234C31.1328 31.9688 31.1406 31.9531 31.4063 31.9141C32.6172 31.7266 33.4844 31.2891 34.3359 30.4297C35.2344 29.5391 35.6328 28.7109 35.7891 27.4688C35.8281 27.1172 36.3438 23.4219 36.9297 19.2578C37.9844 11.7266 37.9922 11.6719 37.8984 10.9688C37.6875 9.19531 36.8984 7.94531 35.4531 7.08594C34.4453 6.48438 35.0078 6.57813 20.3516 4.53125C19.1094 4.35938 17.3594 4.10938 16.4766 3.98438C14.6172 3.71094 13.5781 3.6875 12.8125 3.89844ZM18.2031 6.75C19.8984 6.99219 22.1719 7.3125 23.2422 7.46875C33.0781 8.84375 33.4375 8.89844 33.8516 9.08594C34.8281 9.54688 35.2031 10.0234 35.3906 11.0781C35.4688 11.5156 35.4375 11.8125 35.125 14.0469C34.9297 15.4063 34.4297 18.9297 34.0234 21.8672C33.5625 25.1641 33.2188 27.3906 33.1172 27.6719C32.8438 28.5 32.4844 28.9375 31.875 29.2109C31.1875 29.5234 31.2578 30.3281 31.2344 21.8906L31.2109 14.4141L31 13.8438C30.7109 13.0547 30.3594 12.4922 29.7813 11.9063C29.2109 11.3281 28.5781 10.9375 27.7422 10.6406L27.1484 10.4297L19.2031 10.4063C12.7266 10.3906 11.25 10.3672 11.25 10.2891C11.25 9.96875 11.5078 8.42188 11.6094 8.10156C11.7656 7.63281 12.2813 6.85938 12.5625 6.67188C12.6797 6.59375 12.9688 6.46875 13.2031 6.39063C13.8359 6.1875 14.6328 6.24219 18.2031 6.75ZM27.0156 13.1016C27.9297 13.4141 28.4141 13.9688 28.6328 14.9531C28.7422 15.4453 28.75 16.4688 28.7344 23.5938L28.7109 31.6797L28.5234 32.1484C28.2813 32.7656 27.7656 33.2813 27.1484 33.5234L26.6797 33.7109L16.9922 33.7344C10.2422 33.75 7.15625 33.7344 6.80469 33.6719C5.8125 33.5 5.15625 33.0156 4.82813 32.2031L4.64844 31.7578V23.3594C4.64844 13.8594 4.60938 14.5078 5.27344 13.7656C5.66407 13.3281 6.17969 13.0781 6.85938 12.9766C7.10157 12.9375 11.6328 12.9141 16.9141 12.9219L26.5234 12.9297L27.0156 13.1016Z" fill="white"/>
<path d="M16.2969 17.9688C15.9766 18.0703 15.5626 18.5 15.4688 18.8281C15.4297 18.9766 15.3907 19.7813 15.3907 20.6016V22.1094H13.7579C12.2032 22.1094 12.1251 22.1172 11.8751 22.2813C11.5001 22.5391 11.3126 22.8281 11.2735 23.2188C11.2188 23.6719 11.4532 24.1406 11.8516 24.3828C12.1329 24.5625 12.2266 24.5703 13.7657 24.5938L15.3829 24.6172L15.4063 26.2344C15.4297 27.7734 15.4376 27.8672 15.6172 28.1484C15.8594 28.5469 16.3282 28.7813 16.7813 28.7266C17.1719 28.6875 17.461 28.5 17.7188 28.125C17.8829 27.875 17.8907 27.7969 17.8907 26.2422V24.6094H19.3985C20.2188 24.6094 21.0235 24.5781 21.1641 24.5313C21.5313 24.4297 21.9376 24.0156 22.0391 23.6563C22.1719 23.1563 21.9063 22.5 21.461 22.2422C21.3438 22.1797 20.7422 22.1328 19.6094 22.1094L17.9297 22.0703L17.8907 20.375C17.8438 18.4531 17.8282 18.3984 17.1876 18.0625C16.8204 17.8828 16.6641 17.8594 16.2969 17.9688Z" fill="white"/>
</svg>
