<svg width="40" height="40" viewBox="0 0 40 40" fill="none" xmlns="http://www.w3.org/2000/svg">
<g clip-path="url(#clip0_60_199)">
<path d="M18.9453 0.109375C17.9766 0.429688 18.1641 0.25 9.3125 9.08594C4.65625 13.7344 0.734378 17.7188 0.585941 17.9375C-0.00780934 18.8203 -0.179684 20.1641 0.156253 21.1797C0.664066 22.6875 1.86719 23.5781 3.59375 23.7188L4.21094 23.7734L4.23438 30.1484C4.25782 36.3984 4.26563 36.5312 4.42188 36.9531C5.00782 38.5 5.98438 39.4531 7.41407 39.875C7.78125 39.9844 8.36719 40 11.5938 40C15.2031 40 15.3594 39.9922 15.6094 39.8438C15.75 39.7578 15.9297 39.5781 16.0156 39.4375C16.1641 39.1875 16.1719 39.0312 16.1719 34.2188C16.1719 30.8359 16.2031 29.1562 16.2578 28.9453C16.3906 28.4766 16.7578 28 17.1719 27.7578L17.5391 27.5391H20.0078H22.4766L22.8594 27.7734C23.2891 28.0391 23.6953 28.6406 23.7813 29.1172C23.8047 29.2812 23.8281 31.6016 23.8281 34.2812C23.8281 39.5547 23.8125 39.3516 24.2578 39.7656L24.4688 39.9609L28.2266 39.9844C30.7422 40 32.125 39.9766 32.3984 39.9219C33.4766 39.6953 34.7266 38.7422 35.2188 37.7734C35.7656 36.6797 35.7344 37.125 35.7656 30.1094L35.7891 23.7656L36.4297 23.7109C38 23.5781 39.0313 22.8906 39.6797 21.5625C39.9531 20.9844 39.9609 20.9609 39.9609 20C39.9609 19.0312 39.9609 19.0156 39.6641 18.3984C39.3672 17.7734 39.3594 17.7656 30.7969 9.20312C22.2266 0.632812 22.2266 0.632812 21.6016 0.335938C21.0078 0.0546875 20.9297 0.0390625 20.1172 0.0234375C19.5625 0.0078125 19.1484 0.0390625 18.9453 0.109375Z" fill="white"/>
</g>
<defs>
<clipPath id="clip0_60_199">
<rect width="40" height="40" fill="white"/>
</clipPath>
</defs>
</svg>
