<svg width="40" height="40" viewBox="0 0 40 40" fill="none" xmlns="http://www.w3.org/2000/svg">
<path d="M8.47656 5.49219C8.03906 5.69531 7.61719 6.13281 7.44531 6.55469C7.375 6.71094 7.30469 7.10938 7.28125 7.4375L7.24219 8.04688H21.2812H35.3125V19.0234V30H35.9219C36.4219 30 36.6016 29.9609 36.9375 29.7969C37.4531 29.5391 37.8516 29.0391 37.9688 28.4922C38.0312 28.2031 38.0469 25.0469 38.0312 17.4219L38.0078 6.75781L37.8359 6.4375C37.625 6.04688 37.25 5.67969 36.8828 5.49219C36.6172 5.35938 35.8984 5.35156 22.7344 5.33594L8.86719 5.3125L8.47656 5.49219Z" fill="white"/>
<path d="M3.06235 10.2031C2.83579 10.3125 2.54672 10.5312 2.42172 10.6875C1.92954 11.2812 1.94516 10.7031 1.9686 22.5078L1.99204 33.2422L2.16391 33.5625C2.37485 33.9531 2.74985 34.3203 3.11704 34.5078C3.38266 34.6406 4.0936 34.6484 17.6952 34.6484H31.992L32.3592 34.4297C32.7733 34.1875 33.0936 33.8125 33.2498 33.3828C33.3358 33.1406 33.3514 31.1094 33.3514 22.3047L33.3592 11.5234L33.1717 11.125C32.9608 10.6641 32.4686 10.2188 32.0389 10.0938C31.8202 10.0234 28.1092 10 17.6014 10H3.4686L3.06235 10.2031ZM20.3514 25C20.3983 25 21.242 24.1875 22.2264 23.2031L24.0233 21.4062L27.3202 24.7031L30.6248 28.0078V29.3125V30.625H17.6561H4.68735V29.3594V28.0859L9.35141 23.4219L14.0233 18.75L17.1483 21.875C18.867 23.5938 20.3123 25 20.3514 25Z" fill="white"/>
</svg>
