<svg width="40" height="40" viewBox="0 0 40 40" fill="none" xmlns="http://www.w3.org/2000/svg">
<path d="M18.2421 0.117191C16.1093 0.445316 14.203 1.46094 12.7109 3.04688C11.0702 4.78907 10.2187 6.80469 10.1015 9.21875C9.93742 12.5938 11.5937 15.8203 14.453 17.6875C15.8593 18.6094 17.2109 19.0781 18.8515 19.2109C21.8905 19.4453 24.4843 18.4922 26.578 16.3594C28.2421 14.6719 29.0859 12.8281 29.289 10.4766C29.5702 7.33594 28.3827 4.41407 26.0155 2.36719C24.4843 1.05469 23.078 0.398441 21.1327 0.117191C20.1952 -0.0156212 19.1015 -0.0234337 18.2421 0.117191Z" fill="white"/>
<path d="M11.1482 19.3828C7.61699 19.7578 5.16387 22.2891 4.02324 26.7578C3.26543 29.7344 3.07012 33.3125 3.55449 35.2734C3.95293 36.8438 5.25762 38.4375 6.76543 39.2031C7.44512 39.5469 8.42168 39.8281 9.24199 39.9219C9.72637 39.9844 13.4139 40 20.4686 39.9844L30.9764 39.9609L31.6404 39.7734C34.1092 39.1016 35.7967 37.4453 36.4139 35.1172C36.7342 33.9063 36.6951 31.0156 36.3201 28.7344C35.4998 23.6563 33.4217 20.6094 30.1326 19.6563C29.3826 19.4375 28.0389 19.2734 27.6404 19.3516C27.2576 19.4219 26.7264 19.7031 25.5232 20.4766C24.242 21.3047 24.0623 21.3984 23.1014 21.7578C21.992 22.1719 21.0779 22.3516 20.0076 22.3516C18.9139 22.3516 18.0701 22.1953 16.9607 21.8047C15.9139 21.4297 15.867 21.4063 14.2264 20.3672C13.367 19.8203 12.7264 19.4688 12.4764 19.3984C12.0389 19.2891 12.0389 19.2891 11.1482 19.3828Z" fill="white"/>
</svg>
